<svg xmlns="http://www.w3.org/2000/svg" xmlns:xlink="http://www.w3.org/1999/xlink" width="354" zoomAndPan="magnify" viewBox="0 0 265.5 201.000001" height="268" preserveAspectRatio="xMidYMid meet" version="1.0"><defs><filter x="0%" y="0%" width="100%" height="100%" id="219aaa236a"><feColorMatrix values="0 0 0 0 1 0 0 0 0 1 0 0 0 0 1 0 0 0 1 0" color-interpolation-filters="sRGB"/></filter><g/><clipPath id="e9638e836c"><path d="M 84 0 L 112 0 L 112 83.25 L 84 83.25 Z M 84 0 " clip-rule="nonzero"/></clipPath><clipPath id="b3888fa325"><path d="M 109 0 L 137 0 L 137 83.25 L 109 83.25 Z M 109 0 " clip-rule="nonzero"/></clipPath><mask id="07bb696316"><g filter="url(#219aaa236a)"><rect x="-80.41" width="382.32" fill="#000000" y="-44.22" height="289.440001" fill-opacity="0.75"/></g></mask><clipPath id="e12e28d86c"><path d="M 0.957031 0.679688 L 13.53125 0.679688 L 13.53125 13.253906 L 0.957031 13.253906 Z M 0.957031 0.679688 " clip-rule="nonzero"/></clipPath><clipPath id="c871ae3e70"><path d="M 7.242188 0.679688 L 9.246094 4.964844 L 13.53125 6.964844 L 9.246094 8.96875 L 7.242188 13.253906 L 5.242188 8.96875 L 0.957031 6.964844 L 5.242188 4.964844 Z M 7.242188 0.679688 " clip-rule="nonzero"/></clipPath><clipPath id="8437d0cbff"><path d="M 0.957031 0.679688 L 13.53125 0.679688 L 13.53125 13.253906 L 0.957031 13.253906 Z M 0.957031 0.679688 " clip-rule="nonzero"/></clipPath><clipPath id="11febf245e"><path d="M 7.242188 0.679688 L 9.246094 4.964844 L 13.53125 6.964844 L 9.246094 8.96875 L 7.242188 13.253906 L 5.242188 8.96875 L 0.957031 6.964844 L 5.242188 4.964844 Z M 7.242188 0.679688 " clip-rule="nonzero"/></clipPath><clipPath id="82f3dcb273"><rect x="0" width="14" y="0" height="14"/></clipPath><clipPath id="6f7ccd514b"><rect x="0" width="14" y="0" height="14"/></clipPath><clipPath id="9e06a899de"><path d="M 0.140625 80 L 222.472656 80 L 222.472656 162 L 0.140625 162 Z M 0.140625 80 " clip-rule="nonzero"/></clipPath><clipPath id="dd7c6740a9"><rect x="0" width="223" y="0" height="82"/></clipPath><clipPath id="5def436032"><path d="M 59 155 L 166 155 L 166 189.378906 L 59 189.378906 Z M 59 155 " clip-rule="nonzero"/></clipPath><clipPath id="6e6260dffe"><rect x="0" width="107" y="0" height="35"/></clipPath><clipPath id="b049085e77"><rect x="0" width="223" y="0" height="190"/></clipPath></defs><g transform="matrix(1, 0, 0, 1, 22, -0.00000000000000443)"><g clip-path="url(#b049085e77)"><path fill="#ffffff" d="M 113.640625 76.488281 C 116.125 76.433594 118.5 75.445312 120.675781 74.3125 C 122.691406 73.257812 124.53125 71.886719 126.015625 70.152344 C 128.921875 66.761719 130.6875 62.488281 130.894531 58.015625 C 130.902344 57.816406 130.613281 57.824219 130.589844 58.015625 C 130.316406 60.355469 129.949219 62.625 129.011719 64.804688 C 128.199219 66.691406 127.054688 68.480469 125.710938 70.027344 C 124.253906 71.699219 122.46875 73.011719 120.515625 74.039062 C 119.476562 74.585938 118.398438 75.070312 117.304688 75.492188 C 116.109375 75.953125 114.878906 76.148438 113.628906 76.410156 C 113.585938 76.417969 113.597656 76.492188 113.640625 76.488281 " fill-opacity="1" fill-rule="nonzero"/><path fill="#ffffff" d="M 108.546875 16.707031 C 107.351562 18.925781 106.144531 21.132812 104.9375 23.34375 C 103.757812 25.511719 102.566406 27.679688 101.371094 29.839844 C 99.996094 32.320312 98.488281 34.757812 97.222656 37.296875 C 97.179688 37.386719 97.304688 37.460938 97.355469 37.375 C 98.878906 34.988281 100.167969 32.414062 101.527344 29.933594 C 102.714844 27.765625 103.894531 25.59375 105.066406 23.421875 C 106.261719 21.203125 107.445312 18.976562 108.617188 16.746094 C 108.640625 16.699219 108.570312 16.660156 108.546875 16.707031 " fill-opacity="1" fill-rule="nonzero"/><path fill="#ffffff" d="M 110.816406 6.601562 C 106.902344 15.792969 101.609375 24.304688 96.71875 32.988281 C 92.445312 40.578125 88.351562 48.769531 88.511719 57.710938 C 88.59375 62.398438 90.167969 66.796875 93.136719 70.425781 C 93.421875 70.773438 93.910156 70.28125 93.628906 69.9375 C 90.890625 66.597656 89.378906 62.539062 89.199219 58.226562 C 89.019531 53.839844 89.992188 49.386719 91.46875 45.273438 C 92.90625 41.265625 94.914062 37.496094 96.980469 33.785156 C 99.308594 29.601562 101.691406 25.457031 103.976562 21.253906 C 106.554688 16.511719 108.972656 11.683594 110.949219 6.660156 C 110.980469 6.582031 110.847656 6.527344 110.816406 6.601562 " fill-opacity="1" fill-rule="nonzero"/><path fill="#ffffff" d="M 131.527344 49.726562 C 133.304688 55.074219 132.886719 61.21875 130.503906 66.3125 C 128.144531 71.351562 123.804688 75.253906 118.617188 77.234375 C 115.722656 78.339844 112.644531 78.832031 109.550781 78.675781 C 109.128906 78.65625 109.132812 79.300781 109.550781 79.324219 C 115.210938 79.65625 120.890625 77.695312 125.246094 74.082031 C 129.667969 70.414062 132.398438 65.058594 133.011719 59.363281 C 133.367188 56.050781 132.914062 52.78125 131.792969 49.652344 C 131.734375 49.488281 131.472656 49.558594 131.527344 49.726562 " fill-opacity="1" fill-rule="nonzero"/><g clip-path="url(#e9638e836c)"><path fill="#ffffff" d="M 110.441406 0.472656 C 109.851562 2.453125 108.917969 4.316406 107.992188 6.160156 C 106.699219 8.738281 105.351562 11.289062 103.949219 13.8125 C 100.96875 19.183594 97.839844 24.472656 94.753906 29.78125 C 93.59375 31.773438 92.429688 33.765625 91.332031 35.792969 C 89.898438 38.4375 88.71875 41.234375 87.664062 44.050781 C 84.507812 52.472656 83.273438 62.148438 88.121094 70.203125 C 90.367188 73.933594 93.570312 77.117188 97.257812 79.429688 C 101.402344 82.023438 106.117188 83.292969 111.007812 83.140625 C 112.214844 83.101562 112.222656 81.253906 111.007812 81.253906 C 106.695312 81.261719 102.621094 80.347656 98.882812 78.164062 C 95.59375 76.242188 92.683594 73.578125 90.523438 70.433594 C 88.144531 66.96875 86.882812 62.972656 86.722656 58.773438 C 86.546875 54.191406 87.601562 49.679688 89.132812 45.386719 C 90.164062 42.492188 91.339844 39.609375 92.769531 36.886719 C 93.773438 34.980469 94.839844 33.109375 95.902344 31.238281 C 98.859375 26.042969 101.859375 20.875 104.671875 15.601562 C 106.160156 12.800781 107.65625 9.984375 108.929688 7.078125 C 109.828125 5.023438 110.742188 2.882812 111.164062 0.671875 C 111.253906 0.203125 110.582031 0.00390625 110.441406 0.472656 " fill-opacity="1" fill-rule="nonzero"/></g><g clip-path="url(#b3888fa325)"><path fill="#ffffff" d="M 110.515625 0.671875 C 110.894531 2.636719 111.632812 4.515625 112.425781 6.347656 C 113.511719 8.84375 114.75 11.277344 116.007812 13.695312 C 118.804688 19.074219 121.832031 24.324219 124.835938 29.589844 C 127.261719 33.84375 129.632812 38.035156 131.476562 42.582031 C 134.78125 50.730469 136.871094 60.296875 132.386719 68.441406 C 130.335938 72.167969 127.246094 75.351562 123.667969 77.632812 C 119.527344 80.269531 114.964844 81.347656 110.082031 81.234375 C 108.863281 81.207031 108.875 83.058594 110.082031 83.121094 C 114.46875 83.351562 118.757812 82.46875 122.65625 80.4375 C 126.207031 78.589844 129.347656 75.914062 131.796875 72.753906 C 134.40625 69.390625 136.066406 65.511719 136.617188 61.289062 C 137.214844 56.730469 136.558594 52.113281 135.257812 47.730469 C 133.550781 41.96875 130.917969 36.675781 127.925781 31.5 C 124.914062 26.292969 121.851562 21.117188 118.890625 15.882812 C 117.238281 12.964844 115.625 10.03125 114.125 7.03125 C 113.066406 4.910156 111.914062 2.75 111.238281 0.472656 C 111.101562 0.00390625 110.425781 0.199219 110.515625 0.671875 " fill-opacity="1" fill-rule="nonzero"/></g><g mask="url(#07bb696316)"><g transform="matrix(1, 0, 0, 1, 103, 41)"><g clip-path="url(#6f7ccd514b)"><g clip-path="url(#e12e28d86c)"><g clip-path="url(#c871ae3e70)"><g transform="matrix(1, 0, 0, 1, 0.000000000000014211, 0)"><g clip-path="url(#82f3dcb273)"><g clip-path="url(#8437d0cbff)"><g clip-path="url(#11febf245e)"><path fill="#ffffff" d="M 0.957031 0.679688 L 13.53125 0.679688 L 13.53125 13.253906 L 0.957031 13.253906 Z M 0.957031 0.679688 " fill-opacity="1" fill-rule="nonzero"/></g></g></g></g></g></g></g></g></g><g clip-path="url(#9e06a899de)"><g transform="matrix(1, 0, 0, 1, -0.000000000000003553, 80)"><g clip-path="url(#dd7c6740a9)"><g fill="#ffffff" fill-opacity="1"><g transform="translate(0.197182, 63.19326)"><g><path d="M 3.46875 -2.078125 C 4.945312 -2.117188 6 -2.457031 6.625 -3.09375 C 7.257812 -3.726562 7.617188 -4.472656 7.703125 -5.328125 C 7.785156 -6.191406 7.828125 -7.703125 7.828125 -9.859375 L 7.828125 -37.140625 C 7.828125 -38.898438 7.890625 -40.414062 8.015625 -41.6875 L 3.46875 -41.4375 L 3.46875 -44.203125 L 17.6875 -44.203125 L 17.6875 -42.125 C 16.207031 -42.082031 15.148438 -41.742188 14.515625 -41.109375 C 13.890625 -40.484375 13.535156 -39.738281 13.453125 -38.875 C 13.367188 -38.007812 13.328125 -36.503906 13.328125 -34.359375 L 13.328125 -7.265625 C 13.328125 -5.078125 13.265625 -3.4375 13.140625 -2.34375 L 24.953125 -2.53125 C 27.640625 -2.570312 29.65625 -3.421875 31 -5.078125 C 32.351562 -6.742188 33.03125 -9.410156 33.03125 -13.078125 L 35.171875 -13.078125 L 34.796875 0 L 3.46875 0 Z M 3.46875 -2.078125 "/></g></g></g><g fill="#ffffff" fill-opacity="1"><g transform="translate(36.004174, 63.19326)"><g><path d="M 24.0625 1.015625 C 19.601562 1.015625 16.078125 0.226562 13.484375 -1.34375 C 10.890625 -2.925781 9.035156 -5.347656 7.921875 -8.609375 C 6.804688 -11.878906 6.25 -16.1875 6.25 -21.53125 L 6.25 -34.359375 C 6.25 -37.054688 6.332031 -39.5 6.5 -41.6875 L 1.953125 -41.5 L 1.953125 -44.203125 L 16.109375 -44.203125 L 16.109375 -42.125 C 14.253906 -42.125 13.070312 -41.640625 12.5625 -40.671875 C 12.0625 -39.703125 11.8125 -38.523438 11.8125 -37.140625 L 11.8125 -21.21875 C 11.8125 -17.550781 12.132812 -14.378906 12.78125 -11.703125 C 13.4375 -9.035156 14.722656 -6.847656 16.640625 -5.140625 C 18.554688 -3.441406 21.304688 -2.59375 24.890625 -2.59375 C 29.265625 -2.59375 32.515625 -4.097656 34.640625 -7.109375 C 36.765625 -10.117188 37.867188 -14.210938 37.953125 -19.390625 L 38.140625 -37.140625 C 38.140625 -38.898438 38.203125 -40.414062 38.328125 -41.6875 L 33.859375 -41.4375 L 33.859375 -44.203125 L 45.59375 -44.203125 L 45.59375 -42.125 C 44.082031 -42.082031 43.007812 -41.742188 42.375 -41.109375 C 41.75 -40.484375 41.390625 -39.738281 41.296875 -38.875 C 41.210938 -38.007812 41.171875 -36.503906 41.171875 -34.359375 L 41.046875 -19.703125 C 41.003906 -13.597656 39.644531 -8.617188 36.96875 -4.765625 C 34.300781 -0.910156 30 1.015625 24.0625 1.015625 Z M 24.0625 1.015625 "/></g></g></g><g fill="#ffffff" fill-opacity="1"><g transform="translate(83.494246, 63.19326)"><g><path d="M 23.75 -7.265625 C 20.550781 -14.378906 18.066406 -19.988281 16.296875 -24.09375 C 14.523438 -28.195312 12.796875 -32.523438 11.109375 -37.078125 L 11.046875 -34.296875 C 10.671875 -21.960938 10.441406 -13.160156 10.359375 -7.890625 C 10.359375 -7.265625 10.335938 -6.800781 10.296875 -6.5 C 10.296875 -5.070312 10.234375 -3.75 10.109375 -2.53125 L 14.84375 -2.78125 L 14.84375 0 L 2.78125 0 L 2.78125 -2.078125 C 4.550781 -2.117188 5.695312 -2.613281 6.21875 -3.5625 C 6.75 -4.507812 7.054688 -5.953125 7.140625 -7.890625 L 8.53125 -41.6875 L 3.984375 -41.5 L 3.984375 -44.203125 L 13.640625 -44.203125 L 22.234375 -24.375 C 25.347656 -17.050781 27.75 -11.492188 29.4375 -7.703125 L 29.5625 -7.703125 C 30.0625 -8.960938 31.132812 -11.679688 32.78125 -15.859375 C 34.375 -19.898438 36.203125 -24.335938 38.265625 -29.171875 C 40.671875 -34.816406 42.738281 -39.828125 44.46875 -44.203125 L 53.8125 -44.203125 L 53.8125 -42.125 C 52.289062 -42.164062 51.171875 -41.753906 50.453125 -40.890625 C 49.742188 -40.023438 49.390625 -38.5625 49.390625 -36.5 L 49.453125 -35.234375 L 51.09375 -6.5 C 51.175781 -5.53125 51.21875 -4.226562 51.21875 -2.59375 L 55.828125 -2.78125 L 55.828125 0 L 41.6875 0 L 41.6875 -2.078125 C 43.320312 -2.117188 44.4375 -2.59375 45.03125 -3.5 C 45.625 -4.40625 45.921875 -5.828125 45.921875 -7.765625 C 45.921875 -8.566406 45.894531 -9.175781 45.84375 -9.59375 L 44.203125 -36.5 C 44.117188 -36.289062 44.003906 -36.015625 43.859375 -35.671875 C 43.710938 -35.335938 43.554688 -34.941406 43.390625 -34.484375 L 29.171875 0.625 L 27.28125 0.625 Z M 23.75 -7.265625 "/></g></g></g><g fill="#ffffff" fill-opacity="1"><g transform="translate(141.467487, 63.19326)"><g><path d="M 3.46875 -2.078125 C 4.945312 -2.117188 6 -2.457031 6.625 -3.09375 C 7.257812 -3.726562 7.617188 -4.472656 7.703125 -5.328125 C 7.785156 -6.191406 7.828125 -7.703125 7.828125 -9.859375 L 7.828125 -37.140625 C 7.828125 -38.898438 7.890625 -40.414062 8.015625 -41.6875 L 3.46875 -41.4375 L 3.46875 -44.203125 L 33.859375 -44.203125 L 34.171875 -33.15625 L 32.078125 -33.15625 C 32.078125 -36.601562 31.328125 -38.957031 29.828125 -40.21875 C 28.335938 -41.488281 26.25 -42.082031 23.5625 -42 L 18.125 -41.875 C 16.613281 -41.832031 15.519531 -41.546875 14.84375 -41.015625 C 14.164062 -40.492188 13.742188 -39.757812 13.578125 -38.8125 C 13.410156 -37.863281 13.328125 -36.378906 13.328125 -34.359375 L 13.328125 -24.25 L 25.203125 -24.1875 L 24.75 -29.625 L 27.53125 -29.625 L 27.53125 -16.359375 L 25.453125 -16.359375 C 25.453125 -17.910156 25.257812 -19.097656 24.875 -19.921875 C 24.5 -20.742188 23.921875 -21.289062 23.140625 -21.5625 C 22.367188 -21.84375 21.285156 -21.984375 19.890625 -21.984375 L 17.9375 -21.921875 L 13.328125 -21.71875 L 13.328125 -7.265625 C 13.328125 -5.078125 13.265625 -3.4375 13.140625 -2.34375 L 25.203125 -2.53125 C 28.148438 -2.570312 30.398438 -3.316406 31.953125 -4.765625 C 33.515625 -6.222656 34.296875 -8.738281 34.296875 -12.3125 L 36.4375 -12.3125 L 36.0625 0 L 3.46875 0 Z M 27.53125 -53.625 C 28.875 -54.46875 29.546875 -55.394531 29.546875 -56.40625 C 29.546875 -56.945312 29.421875 -57.382812 29.171875 -57.71875 C 29.046875 -57.894531 28.820312 -58.078125 28.5 -58.265625 C 28.1875 -58.453125 27.820312 -58.546875 27.40625 -58.546875 C 26.644531 -58.546875 25.820312 -58.164062 24.9375 -57.40625 L 16.984375 -49.828125 L 18.375 -48 Z M 27.53125 -53.625 "/></g></g></g><g fill="#ffffff" fill-opacity="1"><g transform="translate(180.747835, 63.19326)"><g><path d="M -0.375 -2.078125 C 0.675781 -2.078125 1.515625 -2.316406 2.140625 -2.796875 C 2.773438 -3.285156 3.289062 -3.921875 3.6875 -4.703125 C 4.09375 -5.484375 4.566406 -6.648438 5.109375 -8.203125 L 5.75 -9.984375 L 18.75 -45.40625 L 20.265625 -45.40625 L 34.359375 -9.46875 C 34.816406 -8.332031 35.210938 -7.101562 35.546875 -5.78125 C 35.890625 -4.457031 36.039062 -3.375 36 -2.53125 L 40.296875 -2.78125 L 40.296875 0 L 25.828125 0 L 25.828125 -2.078125 C 28.316406 -2.117188 29.5625 -3.128906 29.5625 -5.109375 C 29.5625 -5.910156 29.347656 -6.898438 28.921875 -8.078125 L 26.71875 -14.015625 L 10.296875 -13.640625 C 9.660156 -11.910156 8.921875 -9.660156 8.078125 -6.890625 C 7.660156 -5.492188 7.132812 -4.039062 6.5 -2.53125 L 11.4375 -2.78125 L 11.4375 0 L -0.375 0 Z M 25.828125 -16.359375 L 21.34375 -28.421875 L 18.5 -36.1875 L 18.375 -36.1875 L 15.71875 -29.046875 L 12.3125 -19.453125 L 11.234375 -16.359375 Z M 25.828125 -16.359375 "/></g></g></g></g></g></g><g clip-path="url(#5def436032)"><g transform="matrix(1, 0, 0, 1, 59, 155)"><g clip-path="url(#6e6260dffe)"><g fill="#ffffff" fill-opacity="1"><g transform="translate(0.140981, 25.219907)"><g><path d="M 10.1875 -8.578125 C 10.789062 -8.484375 11.34375 -8.238281 11.84375 -7.84375 C 12.34375 -7.445312 12.738281 -6.953125 13.03125 -6.359375 C 13.332031 -5.765625 13.484375 -5.132812 13.484375 -4.46875 C 13.484375 -3.625 13.265625 -2.863281 12.828125 -2.1875 C 12.398438 -1.507812 11.773438 -0.972656 10.953125 -0.578125 C 10.140625 -0.191406 9.175781 0 8.0625 0 L 1.84375 0 L 1.84375 -16.65625 L 7.8125 -16.65625 C 8.945312 -16.65625 9.910156 -16.46875 10.703125 -16.09375 C 11.503906 -15.71875 12.101562 -15.210938 12.5 -14.578125 C 12.894531 -13.941406 13.09375 -13.226562 13.09375 -12.4375 C 13.09375 -11.445312 12.828125 -10.628906 12.296875 -9.984375 C 11.765625 -9.335938 11.0625 -8.867188 10.1875 -8.578125 Z M 4.015625 -9.46875 L 7.671875 -9.46875 C 8.691406 -9.46875 9.476562 -9.707031 10.03125 -10.1875 C 10.59375 -10.664062 10.875 -11.328125 10.875 -12.171875 C 10.875 -13.015625 10.59375 -13.675781 10.03125 -14.15625 C 9.476562 -14.632812 8.675781 -14.875 7.625 -14.875 L 4.015625 -14.875 Z M 7.859375 -1.796875 C 8.941406 -1.796875 9.785156 -2.050781 10.390625 -2.5625 C 11.003906 -3.070312 11.3125 -3.78125 11.3125 -4.6875 C 11.3125 -5.613281 10.988281 -6.34375 10.34375 -6.875 C 9.707031 -7.40625 8.859375 -7.671875 7.796875 -7.671875 L 4.015625 -7.671875 L 4.015625 -1.796875 Z M 7.859375 -1.796875 "/></g></g></g><g fill="#ffffff" fill-opacity="1"><g transform="translate(18.020208, 25.219907)"><g><path d="M 4.015625 -14.890625 L 4.015625 -9.328125 L 10.09375 -9.328125 L 10.09375 -7.53125 L 4.015625 -7.53125 L 4.015625 -1.796875 L 10.8125 -1.796875 L 10.8125 0 L 1.84375 0 L 1.84375 -16.6875 L 10.8125 -16.6875 L 10.8125 -14.890625 Z M 4.015625 -14.890625 "/></g></g></g><g fill="#ffffff" fill-opacity="1"><g transform="translate(33.5094, 25.219907)"><g><path d="M 11.6875 -3.703125 L 4.421875 -3.703125 L 3.078125 0 L 0.78125 0 L 6.8125 -16.5625 L 9.328125 -16.5625 L 15.328125 0 L 13.03125 0 Z M 11.0625 -5.46875 L 8.0625 -13.890625 L 5.046875 -5.46875 Z M 11.0625 -5.46875 "/></g></g></g><g fill="#ffffff" fill-opacity="1"><g transform="translate(52.846549, 25.219907)"><g><path d="M 3.96875 -16.65625 L 3.96875 -6.125 C 3.96875 -4.632812 4.328125 -3.53125 5.046875 -2.8125 C 5.773438 -2.101562 6.785156 -1.75 8.078125 -1.75 C 9.359375 -1.75 10.359375 -2.101562 11.078125 -2.8125 C 11.804688 -3.53125 12.171875 -4.632812 12.171875 -6.125 L 12.171875 -16.65625 L 14.34375 -16.65625 L 14.34375 -6.140625 C 14.34375 -4.753906 14.0625 -3.585938 13.5 -2.640625 C 12.945312 -1.691406 12.195312 -0.984375 11.25 -0.515625 C 10.300781 -0.0546875 9.238281 0.171875 8.0625 0.171875 C 6.875 0.171875 5.804688 -0.0546875 4.859375 -0.515625 C 3.910156 -0.984375 3.160156 -1.691406 2.609375 -2.640625 C 2.066406 -3.585938 1.796875 -4.753906 1.796875 -6.140625 L 1.796875 -16.65625 Z M 3.96875 -16.65625 "/></g></g></g><g fill="#ffffff" fill-opacity="1"><g transform="translate(72.2076, 25.219907)"><g><path d="M 12.09375 -16.65625 L 12.09375 -14.890625 L 7.546875 -14.890625 L 7.546875 0 L 5.375 0 L 5.375 -14.890625 L 0.8125 -14.890625 L 0.8125 -16.65625 Z M 12.09375 -16.65625 "/></g></g></g><g fill="#ffffff" fill-opacity="1"><g transform="translate(88.366007, 25.219907)"><g><path d="M 13.5 -16.65625 L 8.078125 -6.28125 L 8.078125 0 L 5.90625 0 L 5.90625 -6.28125 L 0.453125 -16.65625 L 2.875 -16.65625 L 6.984375 -8.21875 L 11.09375 -16.65625 Z M 13.5 -16.65625 "/></g></g></g></g></g></g></g></g></svg>